<?xml version="1.0" encoding="UTF-8" standalone="no"?>
<svg
   viewBox="0 0 1024 1024"
   role="img"
   aria-labelledby="title desc"
   version="1.1"
   id="svg14"
   sodipodi:docname="mistercast.svg"
   inkscape:version="1.4.4 (dcaf3e7d9e, 2026-05-05)"
   xmlns:inkscape="http://www.inkscape.org/namespaces/inkscape"
   xmlns:sodipodi="http://sodipodi.sourceforge.net/DTD/sodipodi-0.dtd"
   xmlns="http://www.w3.org/2000/svg"
   xmlns:svg="http://www.w3.org/2000/svg"
   xmlns:rdf="http://www.w3.org/1999/02/22-rdf-syntax-ns#"
   xmlns:cc="http://creativecommons.org/ns#"
   xmlns:dc="http://purl.org/dc/elements/1.1/">
  <defs
     id="defs14" />
  <sodipodi:namedview
     id="namedview14"
     pagecolor="#ffffff"
     bordercolor="#000000"
     borderopacity="0.25"
     inkscape:showpageshadow="2"
     inkscape:pageopacity="0.0"
     inkscape:pagecheckerboard="0"
     inkscape:deskcolor="#d1d1d1"
     inkscape:zoom="1.1748047"
     inkscape:cx="511.5744"
     inkscape:cy="512"
     inkscape:window-width="2560"
     inkscape:window-height="1412"
     inkscape:window-x="0"
     inkscape:window-y="0"
     inkscape:window-maximized="1"
     inkscape:current-layer="svg14" />
  <title
     id="title">CRT streaming icon</title>
  <desc
     id="desc">A modern flat white CRT television with a purple streaming symbol on a dark rounded background.</desc>
  <rect
     width="1024"
     height="1024"
     rx="176"
     fill="#10151D"
     id="rect1"
     style="fill:#111820;fill-opacity:1" />
  <!-- Antennas -->
  <g
     fill="none"
     stroke="#F7F7F5"
     stroke-width="34"
     stroke-linecap="round"
     id="g2">
    <path
       d="M470 320 326 145"
       id="path1" />
    <path
       d="M554 320 698 145"
       id="path2" />
  </g>
  <g
     fill="#F7F7F5"
     id="g3">
    <circle
       cx="326"
       cy="145"
       r="28"
       id="circle2" />
    <circle
       cx="698"
       cy="145"
       r="28"
       id="circle3" />
    <path
       d="M436 350c0-42 34-76 76-76s76 34 76 76z"
       id="path3" />
  </g>
  <!-- TV body -->
  <rect
     x="150"
     y="340"
     width="724"
     height="500"
     rx="78"
     fill="#F7F7F5"
     id="rect3" />
  <!-- Screen -->
  <path
     d="M226 410c-28 8-42 31-42 67v225c0 45 21 70 62 76 122 16 335 16 457 0 41-6 62-31 62-76V477c0-36-14-59-42-67-116-25-381-25-497 0z"
     fill="#10151D"
     id="path4"
     style="fill:#111820;fill-opacity:1" />
  <!-- Streaming icon -->
  <g
     fill="#7C4DFF"
     id="g5"
     style="fill:#67d4b1;fill-opacity:1"
     transform="translate(-17.024106,-21.280133)">
    <path
       d="m 330,545 v 138 c 0,18 20,29 35,19 l 99,-69 c 13,-9 13,-29 0,-38 l -99,-69 c -15,-10 -35,1 -35,19 z"
       id="path5"
       style="fill:#67d4b1;fill-opacity:1" />
    <circle
       id="circle5"
       style="fill:#67d4b1;fill-opacity:1"
       r="18"
       cy="614"
       cx="511.80963" />
  </g>
  <g
     fill="none"
     stroke="#7C4DFF"
     stroke-width="28"
     stroke-linecap="round"
     id="g7"
     style="stroke:#67d4b1;stroke-opacity:1"
     transform="translate(-12.768079,-21.280133)">
    <path
       d="m 550,570 c 24,25 24,63 0,88"
       id="path6"
       style="stroke:#67d4b1;stroke-opacity:1" />
    <path
       d="m 593,531 c 46,48 46,118 0,166"
       id="path7"
       style="stroke:#67d4b1;stroke-opacity:1" />
  </g>
  <!-- Controls -->
  <g
     fill="#10151D"
     id="g11"
     style="fill:#111820;fill-opacity:1">
    <rect
       x="782"
       y="449"
       width="58"
       height="14"
       rx="7"
       id="rect7"
       style="fill:#111820;fill-opacity:1" />
    <rect
       x="782"
       y="480"
       width="58"
       height="14"
       rx="7"
       id="rect8"
       style="fill:#111820;fill-opacity:1" />
    <rect
       x="782"
       y="511"
       width="58"
       height="14"
       rx="7"
       id="rect9"
       style="fill:#111820;fill-opacity:1" />
    <rect
       x="782"
       y="542"
       width="58"
       height="14"
       rx="7"
       id="rect10"
       style="fill:#111820;fill-opacity:1" />
    <circle
       cx="811"
       cy="625"
       r="34"
       id="circle10"
       style="fill:#111820;fill-opacity:1" />
    <circle
       cx="811"
       cy="710"
       r="34"
       id="circle11"
       style="fill:#111820;fill-opacity:1" />
  </g>
  <g
     fill="#343A43"
     id="g13"
     style="fill:#f4bd63;fill-opacity:1">
    <circle
       cx="811"
       cy="625"
       r="19"
       id="circle12"
       style="fill:#f4bd63;fill-opacity:1" />
    <circle
       cx="811"
       cy="710"
       r="19"
       id="circle13"
       style="fill:#f4bd63;fill-opacity:1" />
  </g>
  <!-- Feet -->
  <path
     d="m 241.66085,852.76808 h 92 l -10,42 c -3,11 -12,18 -23,18 h -40 c -11,0 -20,-7 -23,-18 z"
     fill="#f7f7f5"
     id="path13" />
  <path
     d="m 689.48795,852.76808 h 92 l -10,42 c -3,11 -12,18 -23,18 h -40 c -11,0 -20,-7 -23,-18 z"
     fill="#f7f7f5"
     id="path14" />
  <path
     style="fill:#67d4b1;fill-opacity:1;stroke:#67d4b1;stroke-opacity:1"
     id="path15"
     sodipodi:type="arc"
     sodipodi:cx="327.71405"
     sodipodi:cy="593.7157"
     sodipodi:rx="32.345802"
     sodipodi:ry="2.1280134"
     sodipodi:start="0"
     sodipodi:end="0.24854594"
     sodipodi:arc-type="slice"
     d="m 360.05985,593.7157 a 32.345802,2.1280134 0 0 1 -0.99395,0.52348 l -31.35185,-0.52348 z" />
  <metadata
     id="metadata15">
    <rdf:RDF>
      <cc:Work
         rdf:about="">
        <dc:title>CRT streaming icon</dc:title>
      </cc:Work>
    </rdf:RDF>
  </metadata>
</svg>
